<svg id="Layer_1" data-name="Layer 1" xmlns="http://www.w3.org/2000/svg" viewBox="0 0 42 55"><title>3</title><path d="M21,53.07c-3.3,0-19.18-6.7-19.18-16.68V13a1,1,0,0,1,.37-.8A1.06,1.06,0,0,1,2.85,12l.2,0a14.91,14.91,0,0,0,3,.29,18.43,18.43,0,0,0,5.74-1,17,17,0,0,0,7.74-5.09,1.06,1.06,0,0,1,.68-.38,7.08,7.08,0,0,1,1.68,0,1.06,1.06,0,0,1,.68.38,17,17,0,0,0,7.74,5.09,18.14,18.14,0,0,0,5.74,1A14.91,14.91,0,0,0,39,12l.2,0a1.06,1.06,0,0,1,.66.23,1,1,0,0,1,.37.8V36.39C40.18,46.37,24.3,53.07,21,53.07Z" style="fill:#ffab14"/><path d="M21,6.82a5.79,5.79,0,0,1,.72,0,17.85,17.85,0,0,0,8.22,5.42,19.43,19.43,0,0,0,6.06,1A16,16,0,0,0,39.15,13V36.39C39.15,45.36,24.24,52,21,52S2.85,45.36,2.85,36.39V13A16,16,0,0,0,6,13.29a19.43,19.43,0,0,0,6.06-1,17.85,17.85,0,0,0,8.22-5.42,5.79,5.79,0,0,1,.72,0m0-2.07h0a7.73,7.73,0,0,0-1,.06,2.08,2.08,0,0,0-1.36.74,15.82,15.82,0,0,1-7.27,4.77,17.19,17.19,0,0,1-5.41.9A13.48,13.48,0,0,1,3.26,11a2,2,0,0,0-.41,0A2.06,2.06,0,0,0,.78,13V36.39C.78,47,17.09,54.1,21,54.1S41.22,47,41.22,36.39V13a2.06,2.06,0,0,0-2.07-2.06,2,2,0,0,0-.41,0,13.48,13.48,0,0,1-2.74.26,17.19,17.19,0,0,1-5.41-.9,15.82,15.82,0,0,1-7.27-4.77A2.08,2.08,0,0,0,22,4.81a7.73,7.73,0,0,0-1-.06Z"/><path d="M38.89,38a4.34,4.34,0,0,1-2.19-.48A4.39,4.39,0,0,1,35,36.48a4.15,4.15,0,0,1-.44,1.4,4,4,0,0,1-.51,1h.06a5.63,5.63,0,0,1,2.86.77c.37.29.74.58,1.12.86A9.85,9.85,0,0,0,39,38Z" style="fill:#f8eddd"/><path d="M26.72,10.88a16.63,16.63,0,0,1-5-4,5.78,5.78,0,0,0-1.44,0,17.85,17.85,0,0,1-8.22,5.42,18.15,18.15,0,0,1-9.21.7V36.39C2.85,45.36,17.76,52,21,52c1.23,0,4.12-1,7.25-2.63C15,43.35,19.25,22.76,26.72,10.88Z" style="fill:#c36610"/><path d="M12.31,44.05C4.5,35.42,4.88,23.85,8.75,13.76A12.85,12.85,0,0,1,2.85,13V36.39c0,8.49,13.38,14.94,17.54,15.59C17.46,49.4,14.74,46.49,12.31,44.05Z"/><path d="M3.07,36.16V13.07L2.85,13V36.39c0,8.49,13.38,14.94,17.54,15.59L20,51.63C15.28,50.52,3.07,44.28,3.07,36.16Z" style="fill:#c36610"/><path d="M33.49,13.11a19.37,19.37,0,0,1-3.55-.83c-.49-.16-1-.35-1.43-.54A8.79,8.79,0,0,0,33.49,13.11Z" style="fill:#f8eddd"/><path d="M33.59,16.23c-2.85-.65-3.36-.84-5.44-1.31C30,15.87,31,16.75,33.59,16.23Z" style="fill:#f8eddd"/><path d="M31.63,17.21l1,.18c-1.2-1.08-1-3.57-.37-4.5A21,21,0,0,1,30,12.3c.52.81,0,4.07-1,4.37C29.88,16.84,30.75,17,31.63,17.21Z" style="fill:#f8eddd"/><path d="M21.57,49C19.18,48.87,6.5,43.07,6.5,36.44v-20h.07a22.38,22.38,0,0,0,7-1.17,22,22,0,0,0,8-4.62,22,22,0,0,0,8,4.62,22.43,22.43,0,0,0,7,1.17h.07v20C36.64,43.07,24,48.87,21.57,49Z" style="fill:#f8eddd"/><path d="M21,49C18.61,48.82,5.93,43,5.93,36.39v-20H6a22.37,22.37,0,0,0,7-1.16,21.91,21.91,0,0,0,8-4.63,21.91,21.91,0,0,0,8,4.63,22.41,22.41,0,0,0,7,1.16h.07v20C36.07,43,23.39,48.82,21,49Z" style="fill:#913200"/><path d="M7.12,37.57v-20h.07a22.14,22.14,0,0,0,7-1.17,17.55,17.55,0,0,0,7.13-4.09c2.16,2,7.81,4.87,14.72,5.22V16.37H36a22.41,22.41,0,0,1-7-1.16,21.91,21.91,0,0,1-8-4.63,21.91,21.91,0,0,1-8,4.63,22.37,22.37,0,0,1-7,1.16H5.93v20c0,2.29,1.52,4.48,3.6,6.38A8,8,0,0,1,7.12,37.57Z" style="fill:#571e00"/><path d="M21,13.29a1,1,0,0,1-.73-.3L15.62,8.34a1,1,0,0,1,0-1.46l4.65-4.65a1,1,0,0,1,1.46,0l4.65,4.65a1,1,0,0,1,0,1.46L21.73,13A1,1,0,0,1,21,13.29Z" style="fill:#ff12de"/><path d="M21,3l4.65,4.65L21,12.26,16.35,7.61,21,3M21,.9a2.06,2.06,0,0,0-1.46.6L14.89,6.15a2.08,2.08,0,0,0,0,2.92l4.65,4.64a2.05,2.05,0,0,0,2.92,0l4.65-4.64a2.08,2.08,0,0,0,0-2.92L22.46,1.5A2.06,2.06,0,0,0,21,.9Z"/><polygon points="21 2.96 21 7.61 25.65 7.61 21 12.26 16.35 7.61 21 2.96" style="fill:#8f007b"/><polygon points="21 7.61 21 12.26 16.35 7.61 21 7.61" style="fill:#520046"/><polygon points="21 7.61 21 10.82 20.8 7.87 18.05 7.61 20.77 7.61 21 7.61" style="fill:#ff12de"/><path d="M20.92,38.74a7.44,7.44,0,0,1-3.08-.56,3.82,3.82,0,0,1-1.8-1.6,5.21,5.21,0,0,1-.58-2.52V31.88h3.73v1.18a5.09,5.09,0,0,0,.38,2.22,1.4,1.4,0,0,0,1.28.8,1.35,1.35,0,0,0,1.24-.68,3.28,3.28,0,0,0,.4-1.73V31.84a1.64,1.64,0,0,0-.71-1.51,4.28,4.28,0,0,0-2.08-.48H18.19V27.8h1.54a3.83,3.83,0,0,0,1.16-.16,2.59,2.59,0,0,0,.86-.45,1.85,1.85,0,0,0,.55-.69,1.92,1.92,0,0,0,.16-.79V24.4a3.51,3.51,0,0,0-.35-1.61,1.32,1.32,0,0,0-1.26-.67,1.25,1.25,0,0,0-1.26.77A5.3,5.3,0,0,0,19.25,25v.77H15.5V24a4.26,4.26,0,0,1,1.33-3.4,6.11,6.11,0,0,1,4.09-1.15,6.44,6.44,0,0,1,4.15,1.06,3.87,3.87,0,0,1,1.27,3.17v1.45a4,4,0,0,1-.82,2.63A3.51,3.51,0,0,1,23.13,29a3.21,3.21,0,0,1,2.41,1.09,3.93,3.93,0,0,1,.83,2.63v1.38a5.69,5.69,0,0,1-.54,2.64,3.33,3.33,0,0,1-1.75,1.54A8.23,8.23,0,0,1,20.92,38.74Z" style="fill:#fff"/></svg>