<svg id="Layer_1" data-name="Layer 1" xmlns="http://www.w3.org/2000/svg" xmlns:xlink="http://www.w3.org/1999/xlink" viewBox="0 0 922.62 689.98"><defs><clipPath id="clip-path"><path d="M401.08,48.3,255.28,0C325.48,212.19,526.86,309.49,676,308.05,634.7,173.52,522.31,64.78,386.93,21.26Q394.45,34.5,401.08,48.3Z" style="fill:none"/></clipPath></defs><title>logo</title><path d="M309.76,295.87,145.86,559H58.64L0,295.87H91l32.71,153.38,95.11-153.38Z"/><path d="M324,295.87h88.72L360.1,559H271.38Z"/><polygon points="909.09 362.78 922.62 295.87 730.09 295.87 750.01 360.76 700.88 361.24 661.32 559.01 874.88 559.01 888.41 492.1 756.47 492.1 763.23 457.52 848.47 457.52 861.25 393.61 776.39 393.61 782.41 362.78 909.09 362.78"/><path d="M618,423.68c28.08-12,45.9-33.27,46.94-62.34-75.67-1.88-156.8-25.26-228.22-65.41L384.1,559H530.4c67.29,0,122.92-25.56,122.92-83.83C653.32,451.13,640.54,433.46,618,423.68ZM535.28,497H478.14l8.27-41.35h57.14c11.66,0,21.81,5.64,21.81,17.29C565.36,489.09,552.58,497,535.28,497Zm7.9-100H498.07L506,357.9h43.23c14.66,0,23.31,5.26,23.31,16.16C572.5,388.35,563.48,397,543.18,397Z"/><g style="clip-path:url(#clip-path)"><path d="M713.41,335.4,312-200.65s85-56,86.38-52.75S713.41,335.4,713.41,335.4Z" style="fill:#6f00ba"/><path d="M713.42,335.4,54.57,215.29s24.23-98.84,27.48-97.41S713.42,335.4,713.42,335.4Z" style="fill:#6f00ba"/><path d="M713.41,335.4,80,117.84s38.77-94.09,41.78-92.19S713.41,335.4,713.41,335.4Z" style="fill:#db1209"/><path d="M713.41,335.4,555.33,252.71c-.89.95-1.77,1.91-2.64,2.89q-8.27,9.22-15.6,19.23Z" style="fill:#6f00ba"/><path d="M713.41,335.4,119.83,25.31S172.27-61.9,175-59.57,713.41,335.4,713.41,335.4Z" style="fill:#f3722e"/><path d="M633.78,293.8l79.63,41.6-69.65-51c-2.48,2.09-4.91,4.26-7.21,6.55C635.6,291.84,634.68,292.81,633.78,293.8Z" style="fill:#6f00ba"/><polygon points="713.41 335.4 173.04 -60.21 240.28 -135.86 713.41 335.4" style="fill:#ffac39"/><path d="M713.41,335.4,630.9,253.21a153.9,153.9,0,0,0-10.83,13.85Z" style="fill:#6f00ba"/><path d="M713.41,335.4,238.49-136.77s75.94-67.74,77.82-64.72S713.41,335.4,713.41,335.4Z" style="fill:#2765ff"/><path d="M573.69,196.49,713.41,335.4s-51.29-69.28-117-158.07C588.93,183.72,581.4,190.22,573.69,196.49Z" style="fill:#6f00ba"/></g><path d="M450.74,94.83,330.29,54.92a368.79,368.79,0,0,0,236,235.25c19,6.86,67.23,18.91,109.75,17.89A368.8,368.8,0,0,0,439.05,72.49Q445.26,83.43,450.74,94.83Z"/><path d="M75.25,647.72l26.36,40.78H81.87L62.35,658.78,50.09,669.62,46.3,688.5H28.83L44,612.57H61.48l-6.94,34.82,39.37-34.82h21.26Z"/><path d="M248.13,612.57,233,688.5H218.52L190.21,641l-9.54,47.51H163.31l15.19-75.93H193l28.31,47.62,9.44-47.62Z"/><path d="M320.35,612.57H338L322.85,688.5H305.17Z"/><path d="M454.19,649.34h16.05L464,680.58c-7.7,5.86-18.12,9.22-29.07,9.22-23,0-37.53-13.34-37.53-33,0-25.93,19-45.56,47.73-45.56,14.53,0,25.16,4.67,31.67,13.23l-12.59,10.2c-5.09-6.07-11.38-8.46-19.84-8.46-17.79,0-29.18,12.8-29.18,29.5,0,11.39,7.59,19.09,22,19.09a29.57,29.57,0,0,0,12.58-2.71Z"/><path d="M617.63,612.57,602.44,688.5H584.87l6.18-30.91H556.67l-6.18,30.91H532.81L548,612.57h17.68l-6,29.83h34.38l6-29.83Z"/><path d="M702.65,626.89h-24.3l2.93-14.32h66.16l-2.93,14.32H720.33L708,688.5H690.39Z"/><path d="M791.36,681.34l7.16-13.56a43,43,0,0,0,25.05,7.92c9.66,0,15.73-3.36,15.73-8.9,0-12.14-37.64-5.64-37.64-29.82,0-15.62,13.67-25.71,34.71-25.71,10.2,0,19.63,2.28,26.25,6.51L856,631.23a36.89,36.89,0,0,0-20.6-5.86c-10.2,0-16.16,3.91-16.16,9.33-.11,12.47,37.63,6,37.63,29.28,0,15.73-13.88,25.82-35,25.82C809.47,689.8,797.76,686.11,791.36,681.34Z"/></svg>