<?xml version="1.0" encoding="utf-8"?>
<!-- Generator: Adobe Illustrator 24.0.2, SVG Export Plug-In . SVG Version: 6.00 Build 0)  -->
<svg version="1.1" id="Layer_1" xmlns="http://www.w3.org/2000/svg" xmlns:xlink="http://www.w3.org/1999/xlink" x="0px" y="0px"
	 viewBox="0 0 922.6 690" style="enable-background:new 0 0 922.6 690;" xml:space="preserve">
<style type="text/css">
	.st0{fill:#DB1209;}
	.st1{fill:#F3722E;}
	.st2{fill:#FFAC39;}
	.st3{fill:#2765FF;}
	.st4{fill:#6F00BA;}
</style>
<title>logo</title>
<path d="M309.8,295.9L145.9,559H58.6L0,295.9h91l32.7,153.4l95.1-153.4H309.8z"/>
<path d="M324,295.9h88.7L360.1,559h-88.7L324,295.9z"/>
<polygon points="909.1,362.8 922.6,295.9 730.1,295.9 750,360.8 700.9,361.2 661.3,559 874.9,559 888.4,492.1 756.5,492.1 
	763.2,457.5 848.5,457.5 861.3,393.6 776.4,393.6 782.4,362.8 "/>
<path d="M618,423.7c28.1-12,45.9-33.3,46.9-62.3c-75.7-1.9-156.8-25.3-228.2-65.4l-52.6,263h146.3c67.3,0,122.9-25.6,122.9-83.8
	C653.3,451.1,640.5,433.5,618,423.7z M535.3,497h-57.1l8.3-41.4h57.1c11.7,0,21.8,5.6,21.8,17.3C565.4,489.1,552.6,497,535.3,497z
	 M543.2,397h-45.1l7.9-39.1h43.2c14.7,0,23.3,5.3,23.3,16.2C572.5,388.4,563.5,397,543.2,397L543.2,397z"/>
<g>
	<path class="st0" d="M325.4,132.4c37.8,48.9,83.9,87.2,133,115.4l165.7,56.9c12.4,1.6,24.6,2.6,36.5,3.1
		C585.8,268.7,444.6,194.8,325.4,132.4z"/>
	<path class="st1" d="M676,308L676,308C589.7,244.7,375,87.3,256.6,0.4L255.3,0c16.8,50.8,41.2,95,70.5,132.9l334.9,174.9
		C665.8,308,670.9,308.1,676,308z"/>
	<path class="st2" d="M676,308c-1.5-4.9-3.1-9.8-4.8-14.7L403.9,27.1c-5.6-2.1-11.3-4-17-5.8c5,8.8,9.7,17.8,14.2,27L255.3,0
		L676,308z"/>
	<path class="st3" d="M403,26.8l268.2,266.6c-3.9-11.1-8.3-22.1-13.1-32.8c-29.3-39.5-67.4-91.1-107.5-145.3
		C507.6,77,457.4,46.6,403,26.8z"/>
	<g>
		<path class="st4" d="M643.8,284.4c-2.5,2.1-4.9,4.3-7.2,6.5c-1,0.9-1.9,1.9-2.8,2.9l-78.5-41.1c-0.9,0.9-1.8,1.9-2.6,2.9
			c-5.5,6.1-10.7,12.5-15.5,19.1c-25.2-8.7-52-17.9-79.4-27.3c54.3,31.4,112.4,50.3,166.7,57.4c-0.1,0-0.2-0.1-0.3-0.1
			c12.4,1.6,24.5,2.6,36.4,3.1l0,0c5.2,0.2,10.3,0.3,15.4,0.2L643.8,284.4z"/>
		<path class="st4" d="M671.1,293.2c-3.6-10.4-7.7-20.6-12.1-30.6l0.1,0.1c-0.2-0.5-0.4-1-0.7-1.5c-0.1-0.2-0.2-0.4-0.2-0.5
			c0,0,0,0,0,0c-26-57.5-65.1-108.8-113.2-150.3l50.7,67.7c-7.2,6.2-14.5,12.4-21.9,18.5l57.1,56.7c-3.9,4.4-7.4,8.9-10.7,13.7
			l55.9,41c-1.5-4.9-3.1-9.8-4.8-14.7L671.1,293.2z"/>
	</g>
	<path d="M450.7,94.8L330.3,54.9c36.7,111.5,124.4,198.9,236,235.2c19,6.9,67.2,18.9,109.8,17.9C639.2,196.2,551.1,108.7,439,72.5
		C443.2,79.8,447.1,87.2,450.7,94.8z"/>
</g>
<path d="M75.3,647.7l26.4,40.8H81.9l-19.5-29.7l-12.3,10.8l-3.8,18.9H28.8L44,612.6h17.5l-6.9,34.8L94,612.6h21.3L75.3,647.7z"/>
<path d="M248.1,612.6L233,688.5h-14.5L190.2,641l-9.5,47.5h-17.4l15.2-75.9H193l28.3,47.6l9.4-47.6H248.1z"/>
<path d="M320.4,612.6H338l-15.1,75.9h-17.7L320.4,612.6z"/>
<path d="M454.2,649.3h16l-6.2,31.2c-7.7,5.9-18.1,9.2-29.1,9.2c-23,0-37.5-13.3-37.5-33c0-25.9,19-45.6,47.7-45.6
	c14.5,0,25.2,4.7,31.7,13.2l-12.6,10.2c-5.1-6.1-11.4-8.5-19.8-8.5c-17.8,0-29.2,12.8-29.2,29.5c0,11.4,7.6,19.1,22,19.1
	c4.3,0,8.6-0.9,12.6-2.7L454.2,649.3z"/>
<path d="M617.6,612.6l-15.2,75.9h-17.6l6.2-30.9h-34.4l-6.2,30.9h-17.7l15.2-75.9h17.7l-6,29.8H594l6-29.8H617.6z"/>
<path d="M702.7,626.9h-24.3l2.9-14.3h66.2l-2.9,14.3h-24.2L708,688.5h-17.6L702.7,626.9z"/>
<path d="M791.4,681.3l7.2-13.6c7.3,5.2,16.1,8,25,7.9c9.7,0,15.7-3.4,15.7-8.9c0-12.1-37.6-5.6-37.6-29.8
	c0-15.6,13.7-25.7,34.7-25.7c10.2,0,19.6,2.3,26.3,6.5l-6.6,13.5c-6.1-3.9-13.3-6-20.6-5.9c-10.2,0-16.2,3.9-16.2,9.3
	c-0.1,12.5,37.6,6,37.6,29.3c0,15.7-13.9,25.8-35,25.8C809.5,689.8,797.8,686.1,791.4,681.3z"/>
</svg>
