<?xml version="1.0" encoding="utf-8"?>
<!-- Generator: Adobe Illustrator 24.0.2, SVG Export Plug-In . SVG Version: 6.00 Build 0)  -->
<svg version="1.1" id="Layer_1" xmlns="http://www.w3.org/2000/svg" xmlns:xlink="http://www.w3.org/1999/xlink" x="0px" y="0px"
	 viewBox="0 0 210 70.3" style="enable-background:new 0 0 210 70.3;" xml:space="preserve">
<style type="text/css">
	.st0{fill:#DB1209;}
	.st1{fill:#F3722E;}
	.st2{fill:#FFAC39;}
	.st3{fill:#2765FF;}
	.st4{fill:#6F00BA;}
</style>
<title>logoHorizontal_black</title>
<path d="M70.4,62.8l4.3,6.7h-3.2l-3.2-4.9l-2,1.8l-0.6,3.1h-2.9L65.3,57h2.9L67,62.7l6.4-5.7h3.5L70.4,62.8z"/>
<path d="M98.7,57l-2.5,12.4h-2.4l-4.6-7.8l-1.6,7.8h-2.8L87.3,57h2.4l4.6,7.8l1.6-7.8H98.7z"/>
<path d="M110.5,57h2.9l-2.5,12.4h-2.9L110.5,57z"/>
<path d="M132.5,63h2.6l-1,5.1c-1.4,1-3.1,1.5-4.8,1.5c-3.8,0-6.1-2.2-6.1-5.4c0-4.2,3.1-7.5,7.8-7.5c2-0.1,3.9,0.7,5.2,2.2l-2.1,1.7
	c-0.8-1-2-1.5-3.3-1.4c-2.5-0.1-4.7,1.9-4.8,4.4c0,0.1,0,0.3,0,0.4c0,1.9,1.2,3.1,3.6,3.1c0.7,0,1.4-0.1,2.1-0.4L132.5,63z"/>
<path d="M159.2,57l-2.5,12.4h-2.9l1-5.1h-5.6l-1,5.1h-2.9l2.5-12.4h2.9l-1,4.9h5.6l1-4.9H159.2z"/>
<path d="M173.1,59.4h-4l0.5-2.3h10.8l-0.5,2.3h-4l-2,10.1h-2.9L173.1,59.4z"/>
<path d="M187.6,68.3l1.2-2.2c1.2,0.8,2.6,1.3,4.1,1.3c1.6,0,2.6-0.6,2.6-1.5c0-2-6.2-0.9-6.2-4.9c0-2.6,2.2-4.2,5.7-4.2
	c1.5-0.1,3,0.3,4.3,1.1l-1.1,2.2c-1-0.7-2.2-1-3.4-1c-1.7,0-2.6,0.6-2.6,1.5c0,2,6.2,1,6.2,4.8c0,2.6-2.3,4.2-5.7,4.2
	C190.9,69.7,189.1,69.2,187.6,68.3z"/>
<path d="M93.9,5.2L78.3,30.3L73,5.2H58.1l3.5,15.5c6.8,7.9,11.9,17.1,15,27l0.2,0.6h5.2l26.8-43.1L93.9,5.2z"/>
<path d="M111.1,5.2h14.5L117,48.2h-14.5L111.1,5.2z"/>
<path d="M165,34.5c0,9.5-9.1,13.7-20.1,13.7h-24l8.6-43.1h22c10.2,0,15.4,3.7,15.4,10.3c0,5-2.9,8.6-7.7,10.7
	C163,27.7,165,30.6,165,34.5z M150.6,34.1c0-1.9-1.7-2.8-3.6-2.8h-9.4l-1.4,6.8h9.4C148.5,38.1,150.6,36.8,150.6,34.1z M140.9,15.3
	l-1.3,6.4h7.4c3.3,0,4.8-1.4,4.8-3.8c0-1.8-1.4-2.7-3.8-2.7H140.9z"/>
<path d="M186.2,16.1l-1,5h13.9L197,31.6H183l-1.1,5.7h21.6l-2.2,11h-35L175,5.2h34.2l-2.2,11L186.2,16.1z"/>
<g>
	<path class="st0" d="M12.2,22.2c6,7.8,13.4,13.9,21.2,18.4l26.4,9.1c2,0.3,3.9,0.4,5.8,0.5C53.6,43.9,31.1,32.1,12.2,22.2z"/>
	<path class="st1" d="M68,50.2L68,50.2C54.3,40.1,20.1,15,1.2,1.1L1,1.1c2.7,8.1,6.6,15.1,11.2,21.2l53.4,27.9
		C66.4,50.2,67.2,50.2,68,50.2z"/>
	<path class="st2" d="M68,50.2c-0.2-0.8-0.5-1.6-0.8-2.3L24.7,5.4c-0.9-0.3-1.8-0.6-2.7-0.9c0.8,1.4,1.5,2.8,2.3,4.3L1,1.1L68,50.2z
		"/>
	<path class="st3" d="M24.5,5.4l42.7,42.5c-0.6-1.8-1.3-3.5-2.1-5.2C60.5,36.3,54.4,28.1,48,19.5C41.2,13.4,33.2,8.5,24.5,5.4z"/>
	<g>
		<path class="st4" d="M62.9,46.4c-0.4,0.3-0.8,0.7-1.1,1c-0.2,0.1-0.3,0.3-0.4,0.5l-12.5-6.5c-0.1,0.1-0.3,0.3-0.4,0.5
			c-0.9,1-1.7,2-2.5,3c-4-1.4-8.3-2.9-12.6-4.4c8.7,5,17.9,8,26.6,9.1c0,0,0,0,0,0c2,0.3,3.9,0.4,5.8,0.5l0,0c0.8,0,1.6,0,2.5,0
			L62.9,46.4z"/>
		<path class="st4" d="M67.2,47.8c-0.6-1.7-1.2-3.3-1.9-4.9l0,0c0-0.1-0.1-0.2-0.1-0.2c0,0,0-0.1,0-0.1c0,0,0,0,0,0
			c-4.1-9.2-10.4-17.3-18-23.9l8.1,10.8c-1.2,1-2.3,2-3.5,3l9.1,9c-0.6,0.7-1.2,1.4-1.7,2.2l8.9,6.5C67.8,49.4,67.5,48.6,67.2,47.8
			L67.2,47.8z"/>
	</g>
	<path d="M32.1,16.2L12.9,9.8c5.8,17.8,19.8,31.7,37.6,37.5c3,1.1,10.7,3,17.5,2.9c-5.9-17.8-19.9-31.8-37.8-37.5
		C30.9,13.8,31.5,15,32.1,16.2z"/>
</g>
</svg>
